<svg class="svg-brand/logo" xmlns="http://www.w3.org/2000/svg" x="0" y="0" width="176" height="48" viewBox="0 0 176 48" xml:space="preserve"><desc stroke="none" fill="#000000" stroke-width="1px">The Hague University of Applied Sciences</desc>
<path d="M171.6 46.7c.4.3 1.1.7 2.1.7 1.1 0 1.5-.5 1.5-1.2 0-.6-.5-.9-1.5-1.3-1.2-.5-1.9-.9-1.9-1.9 0-1.1.7-1.9 2.2-1.9 1 0 1.7.4 2 .6l-.4.6c-.3-.2-.8-.6-1.6-.6-1 0-1.4.5-1.4 1.2 0 .5.6.9 1.6 1.2 1 .4 1.9.8 1.9 1.9 0 1.2-.7 1.9-2.3 1.9-1.2 0-1.9-.4-2.4-.7l.2-.5zm-7.3-5.4h4.1v.7h-3.3v2h2.6v.7h-2.6v2.5h3.3l.2.7h-4.3zm-3.7.9c-.3-.2-.7-.4-1.4-.4-1.3 0-2.1.9-2.1 2.8 0 2 .8 2.7 2 2.7.7 0 1.3-.3 1.7-.7l.5.5c-.5.4-1.1.8-2.2.8-2.4 0-2.7-1.6-2.7-3.4 0-1.9.7-3.4 3-3.4.8 0 1.4.2 1.7.5l-.5.6zm-11.9 5.7h-.8v-6.6h.7l3.4 4.8c.1.2.3.5.3.5v-5.3h.8v6.6h-.7l-3.3-4.7-.3-.6-.1 5.3zm-8.2-6.6h4.1v.7h-3.3v2h2.7v.7h-2.7v2.5h3.4l.1.7h-4.3zm-4.3 0h.8v6.6h-.8zm-3.7.9c-.3-.2-.7-.4-1.4-.4-1.3 0-2.1.9-2.1 2.8 0 2 .8 2.7 2 2.7.7 0 1.3-.3 1.7-.7l.5.5c-.5.4-1.1.8-2.2.8-2.4 0-2.7-1.6-2.7-3.4 0-1.9.7-3.4 3-3.4.8 0 1.4.2 1.7.5l-.5.6zm-11.6 4.5c.4.3 1.1.7 2.1.7 1.1 0 1.5-.5 1.5-1.2 0-.6-.5-.9-1.5-1.3-1.2-.5-1.9-.9-1.9-1.9 0-1.1.7-1.9 2.2-1.9 1 0 1.7.4 2 .6l-.4.6c-.3-.2-.8-.6-1.6-.6-1 0-1.4.5-1.4 1.2 0 .5.6.9 1.6 1.2 1 .4 1.9.8 1.9 1.9 0 1.2-.7 1.9-2.3 1.9-1.2 0-1.9-.4-2.4-.7l.2-.5zm-10.7-5.4H108v6.6h2c2.3 0 3-1.4 3-3.3 0-2-.4-3.3-2.8-3.3zm0 5.9h-1.4V42h1.3c1.4 0 2.1.6 2.1 2.5 0 2-.9 2.7-2 2.7zm-9.5-5.9h4v.7h-3.2v2h2.6v.7h-2.6v2.5h3.3l.1.7h-4.2zm-4.4 0h.8v6.6h-.8zm-6.1 5.9h3l.1.7h-3.9v-6.6h.8zM83.9 42h-1.1v5.9H82v-6.6h2.1c1.7 0 2.3.7 2.3 1.9 0 1.1-.7 2.2-2.8 2.2v-.7h.1c1.6 0 1.9-.8 1.9-1.4-.2-.9-.4-1.3-1.7-1.3zm-7.5 0h-1.1v5.9h-.8v-6.6h2.1c1.7 0 2.3.7 2.3 1.9 0 1.1-.7 2.2-2.8 2.2v-.7h.1c1.6 0 1.9-.8 1.9-1.4-.1-.9-.4-1.3-1.7-1.3zm-7.3-.7h-.8l-2.5 6.6h.9l.6-1.8H70l.6 1.8h.9l-2.4-6.6zm-1.6 4.1l1-2.8c.1-.3.1-.6.1-.6s0 .3.1.6l.9 2.8h-2.1zm83.9-18.2h4.1v.8h-3.3v2h2.7v.7h-2.7v3.2h-.8zm-6-.1c-2.3 0-3 1.5-3 3.4s.4 3.4 2.8 3.4c2.3 0 3-1.5 3-3.4s-.5-3.4-2.8-3.4zm0 6.2c-1.4 0-2.2-.7-2.2-2.7s.8-2.8 2-2.8c1.4 0 2.1.8 2.1 2.7 0 2-.8 2.8-1.9 2.8zM135 27.2l-2.3 4v2.7h-.8v-2.7l-2.3-4h.9l1.8 3.2 1.9-3.2zm-8.1.8H125v5.9h-.8V28h-1.8v-.8h4.5zm-8.4-.8h.8v6.6h-.8zm-7.5 5.5c.4.3 1.1.7 2.1.7 1.1 0 1.5-.5 1.5-1.2 0-.6-.5-.9-1.5-1.3-1.2-.5-1.9-.9-1.9-1.9 0-1.1.7-1.9 2.2-1.9 1 0 1.7.4 2 .6l-.4.6c-.3-.2-.8-.6-1.6-.6-1 0-1.4.5-1.4 1.2 0 .5.6.9 1.6 1.2 1 .4 1.9.8 1.9 1.9 0 1.2-.7 1.9-2.3 1.9-1.2 0-1.9-.4-2.4-.7l.2-.5zm-5.6-4.7h-1.1v5.9h-.8v-6.6h2c1.7 0 2.3.7 2.3 2 0 .8-.4 1.6-1.4 1.9l1.7 2.7h-.9l-2-3.2c1.4 0 1.8-.8 1.8-1.4-.1-.9-.4-1.3-1.6-1.3zm-9.3-.8h4v.8h-3.2v2h2.6v.7h-2.6v2.5h3.3l.1.7h-4.2zm-7.8 0l1.9 5.2c0 .1.1.3.1.3 0-.1 0-.2.1-.3l1.9-5.2h.9l-2.4 6.6H90l-2.5-6.6h.8zm-4.7 0h.8v6.6h-.8zm-7.9 6.7h-.8v-6.6h.7l3.4 4.8c.1.2.3.5.3.5v-5.3h.8v6.6h-.7l-3.3-4.7-.3-.6-.1 5.3zm-6.9.1c-2.4 0-2.4-1.8-2.4-2.4v-4.3h.8v4.4c0 1 .4 1.7 1.8 1.7 1 0 1.6-1 1.6-1.9v-4.2h.8v4.2c0 .8-.3 2.5-2.6 2.5z" class="logo-subtitle" stroke="none" fill="#000000" stroke-width="1px"></path>
<path d="M15.1 11.6h-2.7V.5h2.7v4.3H19V.5h2.6v11.1H19V6.9h-3.9zM8.5 2.4H5.6v9.2H2.9V2.4H0V.5h8.5zM26.6.5h7.8v1.9h-5.2v2.3h4.2v1.9h-4.2v3h5.3l.3 2h-8.2zm50.9 12h-2.1L74.2 16h4.3l1.3 3.8H85L78.7 3.3l-2.2 6.3zm-11.8 7.3h5L77.5.3h-4.1zM135.9.5h13.6v3.4h-9v3.9h7.3v3.4h-7.3v5.1h9.1l.5 3.5h-14.2zm-15.7 19.6c-7.9 0-7.9-5.5-7.9-7.3V.4h4.6V13c0 2.1.9 3.4 3.9 3.4 2.1 0 3.1-2.1 3.1-4.1V.4h4.6v12.1c0 2.5-1 7.6-8.3 7.6zM102.5 4.9c-1.1-.8-2.4-1.5-4.8-1.5-2.7 0-4.3 2.4-4.3 6.9 0 4.6 1.7 6.4 4.9 6.4 1.2 0 2.2-.6 2.8-1.2v-3.2h-4.9V9h9.5v7.6c-1.3 1.6-3.4 3.6-8.1 3.6-7.7 0-9-4.7-9-10.1C88.6 4.6 90.8 0 98 0c3 0 5 1 6.5 2l-2 2.9zM49.7 19.8h-4.6V.5h4.6v7.4h6.8V.5h4.6v19.3h-4.6v-8.2h-6.8z" stroke="none" fill="#000000" stroke-width="1px"></path>
</svg>